{"title":"Legal Eagles (1986)Robert Redford+Debra Winger (Opt.MULTISUBS)","uid":4645331,"size":741350729,"categoryP":"video","categoryS":"movies","magnet":"?xt=urn:btih:e9ed1ec674b9f9b0e004f2fad19c0dd24ac68834&amp;dn=Legal+Eagles+%281986%29Robert+Redford%2BDebra+Winger+%28Opt.MULTISUBS%29&amp;tr=udp%3A%2F%2Ftracker.openbittorrent.com%3A80&amp;tr=udp%3A%2F%2Fopen.demonii.com%3A1337&amp;tr=udp%3A%2F%2Ftracker.coppersurfer.tk%3A6969&amp;tr=udp%3A%2F%2Fexodus.desync.com%3A6969","seeders":7,"leechers":0,"uploader":"Kuthumi","files":-1,"time":1231862379,"description":" &lt;a href=&quot;http://www.imdb.com/title/tt0091396/&quot; rel=&quot;nofollow&quot; target=&quot;_NEW&quot;&gt;http://www.imdb.com/title/tt0091396/&lt;/a&gt;\n\nWith Daryl Hannah (then 26, two years after 'Splash')\n\nOptional subtitles in separate idx/sub files:\nBulgarian, Czech, Danish, Dutch, English, Finnish, French, German, Hungarian, Norwegian, Polish, Portuguese, Swedish, Turkish.\n\nRobert Redford, as the district attorney with a partner who put a dog at the witness stand, is seduced by his naked client Daryl Hannah, who cannot enter a room without a crime beging committed.\n\nI could not find this film on any of the torrent sites, so I made a rip for you.\n\nWidescreen DVDrip XviD 2-pass 720x304, good stereo sound AC3.\nBurn tested, runs well in both my standalone DivX players.\n\nFormat/Info                      : Audio Video Interleave\nFile size                        : 695 MiB\nDuration                         : 1h 50mn\nOveral bit rate                  : 876 Kbps\n\nVideo\nFormat                           : MPEG-4 Visual\nFormat profile                   : Streaming Video@L1\nFormat settings, BVOP            : Yes\nFormat settings, QPel            : No\nFormat settings, GMC             : No warppoints\nFormat settings, Matrix          : Default\nMuxing mode                      : Packet Bitstream\nCodec ID                         : XVID\nCodec ID/Hint                    : XviD\nDuration                         : 1h 50mn\nBit rate                         : 738 Kbps\nWidth                            : 720 pixels\nHeight                           : 304 pixels\nDisplay aspect ratio             : 2.35\nFrame rate                       : 25.000 fps\nResolution                       : 8 bits\nColorimetry                      : 4:2:0\nScan type                        : Progressive\nBits/(Pixel*Frame)               : 0.135\nStream size                      : 586 MiB\nWriting library                  : XviD 1.2.0.dev47 (UTC 2006-11-01)\n\nAudio\nFormat                           : MPEG Audio\nFormat version                   : Version 1\nFormat profile                   : Layer 3\nCodec ID                         : 55\nCodec ID/Hint                    : MP3\nDuration                         : 1h 50mn\nBit rate mode                    : Constant\nBit rate                         : 128 Kbps\nMinimum bit rate                 : 128 Kbps\nChannel(s)                       : 2 channels\nSampling rate                    : 48.0 KHz\nResolution                       : 16 bits\nStream size                      : 101 MiB\nWriting library                  : LAME3.97 \nEncoding settings                : CBR\n\nSource: PAL rental (note that PAL/NTSC will give no problems for avi files)","torrent":{"xt":"urn:btih:e9ed1ec674b9f9b0e004f2fad19c0dd24ac68834","amp;dn":"Legal+Eagles+%281986%29Robert+Redford%2BDebra+Winger+%28Opt.MULTISUBS%29","amp;tr":["udp%3A%2F%2Ftracker.openbittorrent.com%3A80","udp%3A%2F%2Fopen.demonii.com%3A1337","udp%3A%2F%2Ftracker.coppersurfer.tk%3A6969","udp%3A%2F%2Fexodus.desync.com%3A6969"],"infoHash":"e9ed1ec674b9f9b0e004f2fad19c0dd24ac68834","infoHashBuffer":{"type":"Buffer","data":[233,237,30,198,116,185,249,176,224,4,242,250,209,156,13,210,74,198,136,52]},"announce":[],"urlList":[]}}